#!OML:ASF I:\Actors\actors\Patient Classification 2\Patient 1\Session 1\actor1.ASF
:FULLY-SPECIFIED
:DEGREES
184
root -0.577014 18.8183 5.16938 4.84752 4.49048 -0.882187
lowerback 15.394 2.46665 8.7982
upperback 2.65136 4.94358 4.12418
thorax -5.4146 2.29242 -1.52416
lowerneck -9.92518 -8.57636 -4.05844
upperneck 13.0622 -11.0022 0.285756
head 5.81648 -5.51656 -0.147171
rclavicle 2.66371e-014 2.22639e-014
rhumerus 6.55251 4.85331 -42.0657
rradius 83.3524
rwrist -35.2591
rhand 4.63892 -42.1113
rfingers 7.12502
rthumb 30.0255 -69.6939
lclavicle 2.66371e-014 2.22639e-014
lhumerus -49.08 -7.62581 92.0572
lradius 56.2572
lwrist 2.00237
lhand -9.44669 -22.5158
lfingers 7.12502
lthumb 16.5164 6.80127
rfemur 0 0 0
rtibia 0
rfoot 0 0
rtoes 0
lfemur -13.1604 -4.36462 -13.1273
ltibia 23.0292
lfoot -16.9641 7.52732
ltoes -55.9325
185
root -0.558902 18.8163 5.18948 4.68717 4.24885 -0.80309
lowerback 15.2289 2.37948 8.92783
upperback 2.58986 4.84019 4.20144
thorax -5.39526 2.23985 -1.48725
lowerneck -9.82769 -8.38274 -3.93195
upperneck 13.1318 -10.692 -0.217797
head 5.78036 -5.39808 -0.290229
rclavicle 6.0033e-014 2.70347e-014
rhumerus 6.33032 4.78785 -41.9064
rradius 86.6836
rwrist -37.556
rhand 5.4267 -40.832
rfingers 7.12502
rthumb 30.7769 -68.2758
lclavicle 6.0033e-014 2.70347e-014
lhumerus -49.2239 -7.35877 91.9947
lradius 56.2497
lwrist 1.83821
lhand -9.32005 -22.5229
lfingers 7.12502
lthumb 16.6383 6.78399
rfemur 0 0 0
rtibia 0
rfoot 0 0
rtoes 0
lfemur -12.8207 -4.26937 -13.3022
ltibia 22.9826
lfoot -17.1033 7.52994
ltoes -55.7813
186
root -0.541811 18.8143 5.20859 4.58504 3.96874 -0.721763
lowerback 15.0198 2.3162 9.00355
upperback 2.52191 4.7552 4.2941
thorax -5.36295 2.19779 -1.40589
lowerneck -9.87429 -8.19463 -3.78235
upperneck 13.3351 -10.384 -0.742962
head 5.81028 -5.28026 -0.454646
rclavicle -1.43125e-014 2.38542e-014
rhumerus 6.01252 4.47764 -42.1993
rradius 90.1034
rwrist -39.3488
rhand 5.92874 -40.043
rfingers 7.12502
rthumb 31.2554 -67.3954
lclavicle -1.43125e-014 2.38542e-014
lhumerus -49.323 -7.08458 91.9827
lradius 56.2663
lwrist 1.7616
lhand -9.27177 -22.4682
lfingers 7.12502
lthumb 16.6848 6.83477
rfemur 0 0 0
rtibia 0
rfoot 0 0
rtoes 0
lfemur -12.5465 -4.21705 -13.4818
ltibia 22.9427
lfoot -17.269 7.68792
ltoes -55.7243
187
root -0.531409 18.8128 5.2296 4.63704 3.97045 -0.627061
lowerback 14.5397 2.19988 9.05081
upperback 2.42452 4.56491 4.38681
thorax -5.22397 2.10962 -1.27749
lowerneck -9.92812 -8.02237 -3.64463
upperneck 13.5466 -10.1062 -1.18487
head 5.85156 -5.17202 -0.59554
rclavicle 4.37326e-015 -3.02153e-014
rhumerus 5.24784 3.87467 -43.0356
rradius 93.8561
rwrist -40.3575
rhand 6.6783 -39.6459
rfingers 7.12502
rthumb 31.9694 -66.858
lclavicle 4.37326e-015 -3.02153e-014
lhumerus -49.3491 -6.93887 92.0006
lradius 56.2388
lwrist 1.76983
lhand -9.41536 -22.4655
lfingers 7.12502
lthumb 16.5466 6.84906
rfemur 0 0 0
rtibia 0
rfoot 0 0
rtoes 0
lfemur -12.5036 -4.08428 -13.6153
ltibia 22.9194
lfoot -17.3226 7.54788
ltoes -55.696
188
root -0.525623 18.8129 5.23471 4.90441 3.73803 -0.555475
lowerback 14.0853 2.18963 9.04779
upperback 2.24262 4.51389 4.43962
thorax -5.1778 2.08367 -1.19251
lowerneck -9.88412 -7.85539 -3.5089
upperneck 13.6306 -9.85153 -1.53926
head 5.84247 -5.06905 -0.70374
rclavicle 1.15295e-014 -4.13472e-014
rhumerus 5.75274 3.98115 -42.7544
rradius 96.5608
rwrist -41.7978
rhand 6.53039 -39.3284
rfingers 7.12502
rthumb 31.8286 -66.5686
lclavicle 1.15295e-014 -4.13472e-014
lhumerus -49.3335 -6.90009 92.0224
lradius 56.1953
lwrist 1.83063
lhand -9.55122 -22.5643
lfingers 7.12502
lthumb 16.4158 6.76108
rfemur 0 0 0
rtibia 0
rfoot 0 0
rtoes 0
lfemur -12.7195 -3.73532 -13.7036
ltibia 22.9132
lfoot -17.3672 7.36313
ltoes -55.4704
189
root -0.519425 18.8135 5.23084 5.19799 3.2457 -0.505786
lowerback 13.7677 2.24424 9.01711
upperback 2.06132 4.55959 4.47412
thorax -5.19845 2.10203 -1.13506
lowerneck -9.86504 -7.66763 -3.30898
upperneck 13.6627 -9.57408 -1.91906
head 5.8177 -4.95361 -0.827669
rclavicle 2.62396e-014 3.81667e-014
rhumerus 5.82362 3.91579 -42.8624
rradius 99.6137
rwrist -42.4663
rhand 6.26212 -38.7159
rfingers 7.12502
rthumb 31.5731 -66.0065
lclavicle 2.62396e-014 3.81667e-014
lhumerus -49.2961 -6.84576 92.0372
lradius 56.1969
lwrist 1.80464
lhand -9.56372 -22.7139
lfingers 7.12502
lthumb 16.4037 6.61252
rfemur 0 0 0
rtibia 0
rfoot 0 0
rtoes 0
lfemur -12.9473 -3.12916 -13.7931
ltibia 22.8914
lfoot -17.3874 7.18576
ltoes -55.3059
190
root -0.508382 18.8111 5.23594 5.21007 2.93865 -0.454695
lowerback 13.6188 2.18442 9.10881
upperback 1.97002 4.48637 4.52127
thorax -5.21678 2.06206 -1.11805
lowerneck -9.94528 -7.46677 -3.08335
upperneck 13.7503 -9.26367 -2.39894
head 5.82264 -4.82864 -0.990018
rclavicle 2.22639e-014 7.31528e-014
rhumerus 5.72858 3.71692 -43.3691
rradius 102.812
rwrist -42.6357
rhand 6.07945 -37.8421
rfingers 7.12502
rthumb 31.399 -65.1668
lclavicle 2.22639e-014 7.31528e-014
lhumerus -49.2147 -6.77639 92.0973
lradius 56.1466
lwrist 1.68167
lhand -9.42666 -22.9392
lfingers 7.12502
lthumb 16.5357 6.37619
rfemur 0 0 0
rtibia 0
rfoot 0 0
rtoes 0
lfemur -12.8679 -2.65997 -13.9053
ltibia 22.8675
lfoot -17.4207 6.98718
ltoes -55.3286
191
root -0.498474 18.8042 5.25606 4.74283 3.56986 -0.321627
lowerback 13.6573 1.75129 9.33678
upperback 1.99779 3.95949 4.61964
thorax -5.24277 1.80142 -1.05351
lowerneck -10.0541 -7.27357 -3.06482
upperneck 13.8564 -8.95047 -2.73113
head 5.8578 -4.70206 -1.07751
rclavicle -3.06128e-014 7.31528e-014
rhumerus 5.6347 3.52129 -43.9611
rradius 106.025
rwrist -42.823
rhand 6.18582 -37.0442
rfingers 7.12502
rthumb 31.5004 -64.3491
lclavicle -3.06128e-014 7.31528e-014
lhumerus -49.0819 -6.75812 92.2677
lradius 56.0594
lwrist 1.61729
lhand -9.20276 -22.9572
lfingers 7.12502
lthumb 16.7513 6.3401
rfemur 0 0 0
rtibia 0
rfoot 0 0
rtoes 0
lfemur -12.3674 -2.71466 -14.0362
ltibia 22.8289
lfoot -17.2715 6.40062
ltoes -55.4052
192
root -0.491615 18.8023 5.2613 4.69097 3.37393 -0.239742
lowerback 13.5335 1.64915 9.31596
upperback 1.95272 3.81515 4.70338
thorax -5.24188 1.7312 -0.925302
lowerneck -10.115 -7.06698 -3.09539
upperneck 13.8894 -8.63613 -2.91136
head 5.87213 -4.56569 -1.10656
rclavicle -1.07344e-014 1.59028e-014
rhumerus 5.47844 3.26192 -44.8591
rradius 109.279
rwrist -43.09
rhand 6.26928 -36.5175
rfingers 7.12502
rthumb 31.5799 -63.8068
lclavicle -1.07344e-014 1.59028e-014
lhumerus -48.9312 -6.80765 92.4535
lradius 56.0324
lwrist 1.57111
lhand -9.24173 -22.8159
lfingers 7.12502
lthumb 16.7137 6.48461
rfemur 0 0 0
rtibia 0
rfoot 0 0
rtoes 0
lfemur -12.2198 -2.52628 -14.1601
ltibia 22.7826
lfoot -17.2753 6.38264
ltoes -55.4306
193
root -0.482021 18.8005 5.26454 4.64773 3.15892 -0.166134
lowerback 13.4194 1.57134 9.36151
upperback 1.90388 3.71111 4.74447
thorax -5.23933 1.67886 -0.885898
lowerneck -10.0987 -6.87619 -2.94551
upperneck 13.7937 -8.36257 -3.19514
head 5.82012 -4.44668 -1.1919
rclavicle -1.70955e-014 -1.59028e-015
rhumerus 5.33113 3.05817 -45.8707
rradius 112.417
rwrist -43.05
rhand 5.81193 -35.9797
rfingers 7.12502
rthumb 31.1441 -63.3536
lclavicle -1.70955e-014 -1.59028e-015
lhumerus -48.759 -6.92946 92.6026
lradius 55.9858
lwrist 1.46204
lhand -9.38793 -23.0301
lfingers 7.12502
lthumb 16.573 6.28224
rfemur 0 0 0
rtibia 0
rfoot 0 0
rtoes 0
lfemur -12.0805 -2.37713 -14.2856
ltibia 22.7294
lfoot -17.3143 6.41693
ltoes -55.499
194
root -0.47183 18.7988 5.2678 4.57676 2.89401 -0.143285
lowerback 13.4023 1.5318 9.4765
upperback 1.83873 3.68158 4.78329
thorax -5.29763 1.65834 -0.903331
lowerneck -10.1122 -6.73893 -2.70021
upperneck 13.6915 -8.15465 -3.62897
head 5.76129 -4.36583 -1.34488
rclavicle 6.2816e-014 3.97569e-014
rhumerus 5.51679 3.05008 -46.4961
rradius 115.186
rwrist -42.5971
rhand 4.91091 -35.1901
rfingers 7.12502
rthumb 30.285 -62.7254
lclavicle 6.2816e-014 3.97569e-014
lhumerus -48.5948 -7.16918 92.7883
lradius 55.884
lwrist 1.42295
lhand -9.30525 -23.5385
lfingers 7.12502
lthumb 16.6526 5.76719
rfemur 0 0 0
rtibia 0
rfoot 0 0
rtoes 0
lfemur -11.9086 -2.26948 -14.3605
ltibia 22.6976
lfoot -17.3987 6.51591
ltoes -55.513
195
root -0.46403 18.7973 5.27036 4.51621 2.64976 -0.147115
lowerback 13.4034 1.46983 9.55996
upperback 1.76121 3.62439 4.86052
thorax -5.3864 1.62375 -0.859021
lowerneck -10.1728 -6.5846 -2.52117
upperneck 13.6591 -7.90539 -4.09537
head 5.736 -4.27139 -1.49872
rclavicle -1.51076e-014 -4.45278e-014
rhumerus 5.82254 3.12164 -47.0845
rradius 117.859
rwrist -42.0195
rhand 4.14234 -34.3088
rfingers 7.12502
rthumb 29.5516 -61.9763
lclavicle -1.51076e-014 -4.45278e-014
lhumerus -48.4713 -7.4874 93.058
lradius 55.699
lwrist 1.31276
lhand -9.54087 -24.4504
lfingers 7.12502
lthumb 16.4257 4.87416
rfemur 0 0 0
rtibia 0
rfoot 0 0
rtoes 0
lfemur -11.7681 -2.17118 -14.3923
ltibia 22.6747
lfoot -17.4878 6.58652
ltoes -55.4895
196
root -0.456848 18.7951 5.27136 4.48563 2.43055 -0.128356
lowerback 13.3257 1.36838 9.57454
upperback 1.69046 3.49591 4.96604
thorax -5.43595 1.55811 -0.732009
lowerneck -10.1216 -6.37094 -2.49717
upperneck 13.5522 -7.57382 -4.44872
head 5.68239 -4.13464 -1.5813
rclavicle -2.26615e-014 -3.18055e-014
rhumerus 6.09778 3.32549 -47.8315
rradius 120.533
rwrist -41.5877
rhand 3.32427 -33.3976
rfingers 7.12502
rthumb 28.7704 -61.2007
lclavicle -2.26615e-014 -3.18055e-014
lhumerus -48.3732 -7.69943 93.3516
lradius 55.5075
lwrist 0.915239
lhand -10.171 -25.4559
lfingers 7.12502
lthumb 15.819 3.91779
rfemur 0 0 0
rtibia 0
rfoot 0 0
rtoes 0
lfemur -11.6748 -2.00574 -14.4478
ltibia 22.6568
lfoot -17.5783 6.5583
ltoes -55.4419
197
root -0.450265 18.7928 5.27093 4.45617 2.17227 -0.110587
lowerback 13.2358 1.30014 9.58056
upperback 1.63605 3.4054 5.05603
thorax -5.45714 1.51258 -0.622429
lowerneck -10.0323 -6.16946 -2.34657
upperneck 13.3548 -7.27345 -4.88103
head 5.58651 -4.01055 -1.70689
rclavicle 7.15625e-015 5.08889e-014
rhumerus 6.41297 3.64264 -48.6611
rradius 123.08
rwrist -41.0529
rhand 2.27592 -32.5857
rfingers 7.12502
rthumb 27.7684 -60.5546
lclavicle 7.15625e-015 5.08889e-014
lhumerus -48.314 -7.79829 93.5791
lradius 55.6002
lwrist 0.576993
lhand -10.3871 -25.8405
lfingers 7.12502
lthumb 15.6109 3.54961
rfemur 0 0 0
rtibia 0
rfoot 0 0
rtoes 0
lfemur -11.5758 -1.77176 -14.5094
ltibia 22.6328
lfoot -17.6415 6.54234
ltoes -55.4111
198
root -0.44431 18.7909 5.27045 4.4046 1.88321 -0.113071
lowerback 13.1768 1.28206 9.61601
upperback 1.59767 3.38659 5.13119
thorax -5.4699 1.50183 -0.557494
lowerneck -10.0129 -6.02341 -2.12312
upperneck 13.1882 -7.04826 -5.37991
head 5.50724 -3.92452 -1.87402
rclavicle -1.47101e-014 -4.45278e-014
rhumerus 6.72578 3.9678 -49.484
rradius 125.488
rwrist -40.2053
rhand 1.31578 -31.7875
rfingers 7.12502
rthumb 26.85 -59.901
lclavicle -1.47101e-014 -4.45278e-014
lhumerus -48.2861 -7.86076 93.7778
lradius 55.8988
lwrist 0.449291
lhand -10.2514 -25.8915
lfingers 7.12502
lthumb 15.7416 3.48837
rfemur 0 0 0
rtibia 0
rfoot 0 0
rtoes 0
lfemur -11.4456 -1.57847 -14.5461
ltibia 22.5989
lfoot -17.6931 6.62362
ltoes -55.3629
